# xmcd CD database file
#
# Track frame offsets:
#	150
#	22180
#	36287
#	54301
#	75369
#	91898
#	110219
#	126939
#	140886
#	160014
#	181768
#	199290
#	215999
#	230591
#	250600
#
# Disc length: 3594 seconds
#
# Revision: 0
# Processed by: cddbd v1.5.2PL0 Copyright (c) Steve Scherf et al.
# Submitted via: CDex 1.70beta2
#
DISCID=d60e080f
DTITLE=Raul Malo - An Evening With Raul Malo
DYEAR=2006
DGENRE=Country
TTITLE0=Indian Love Call
TTITLE1=I'm Wondering
TTITLE2=You're Only Lonely
TTITLE3=Feels Like Home
TTITLE4=Games That Lovers Play
TTITLE5=At Last
TTITLE6=Oh What a Thrill
TTITLE7=La Vie En Rose
TTITLE8=Besame Mucho
TTITLE9=Dance The Night Away
TTITLE10=I Said I Love You
TTITLE11=Dream River
TTITLE12=Blue Moon
TTITLE13=Every Little Thing (About You)
TTITLE14=Remember
EXTD=YEAR: 2006
EXTT0=
EXTT1=
EXTT2=
EXTT3=
EXTT4=
EXTT5=
EXTT6=
EXTT7=
EXTT8=
EXTT9=
EXTT10=
EXTT11=
EXTT12=
EXTT13=
EXTT14=
PLAYORDER=
